{
    "asset" : {
        "generator" : "Khronos glTF Blender I/O v3.2.40",
        "version" : "2.0"
    },
    "extensionsUsed" : [
        "KHR_materials_clearcoat"
    ],
    "scene" : 0,
    "scenes" : [
        {
            "name" : "Scene",
            "nodes" : [
                6
            ]
        }
    ],
    "nodes" : [
        {
            "name" : "Object_6"
        },
        {
            "children" : [
                0
            ],
            "name" : "camera1",
            "rotation" : [
                0,
                -0.9982345700263977,
                0,
                0.059394802898168564
            ],
            "translation" : [
                12.818281173706055,
                1.5261629819869995,
                -2.366182565689087
            ]
        },
        {
            "mesh" : 0,
            "name" : "pCube1_blinn2_0",
            "rotation" : [
                -0.5313780307769775,
                -0.716628909111023,
                0.451752632856369,
                1.039670660674119e-08
            ],
            "scale" : [
                199.99998474121094,
                200,
                200
            ]
        },
        {
            "children" : [
                2
            ],
            "name" : "pCube1",
            "rotation" : [
                0.1386110782623291,
                0.37266814708709717,
                -0.3135901391506195,
                0.8623030781745911
            ],
            "scale" : [
                0.16505230963230133,
                0.16505230963230133,
                0.16505230963230133
            ],
            "translation" : [
                0.938727617263794,
                1.5591331720352173,
                -0.6366700530052185
            ]
        },
        {
            "children" : [
                1,
                3
            ],
            "name" : "RootNode"
        },
        {
            "children" : [
                4
            ],
            "name" : "Dice.fbx",
            "rotation" : [
                0.7071068286895752,
                0,
                0,
                0.7071067094802856
            ],
            "scale" : [
                0.009999999776482582,
                0.010000000707805157,
                0.010000000707805157
            ]
        },
        {
            "children" : [
                5
            ],
            "name" : "Sketchfab_model",
            "rotation" : [
                -0.7071068286895752,
                0,
                0,
                0.7071067094802856
            ]
        }
    ],
    "materials" : [
        {
            "doubleSided" : true,
            "extensions" : {
                "KHR_materials_clearcoat" : {
                    "clearcoatFactor" : 1,
                    "clearcoatRoughnessFactor" : 0.03999999910593033
                }
            },
            "name" : "blinn2",
            "pbrMetallicRoughness" : {
                "baseColorTexture" : {
                    "index" : 0
                },
                "metallicFactor" : 0,
                "roughnessFactor" : 0.9207483530044556
            }
        }
    ],
    "meshes" : [
        {
            "name" : "pCube1_blinn2_0",
            "primitives" : [
                {
                    "attributes" : {
                        "POSITION" : 0,
                        "NORMAL" : 1,
                        "TEXCOORD_0" : 2
                    },
                    "indices" : 3,
                    "material" : 0
                }
            ]
        }
    ],
    "textures" : [
        {
            "sampler" : 0,
            "source" : 0
        }
    ],
    "images" : [
        {
            "bufferView" : 4,
            "mimeType" : "image/jpeg",
            "name" : "blinn2_baseColor"
        }
    ],
    "accessors" : [
        {
            "bufferView" : 0,
            "componentType" : 5126,
            "count" : 30272,
            "max" : [
                6.000002384185791,
                6.000002384185791,
                6.000001907348633
            ],
            "min" : [
                -6.000002861022949,
                -6.000002384185791,
                -6.000001907348633
            ],
            "type" : "VEC3"
        },
        {
            "bufferView" : 1,
            "componentType" : 5126,
            "count" : 30272,
            "type" : "VEC3"
        },
        {
            "bufferView" : 2,
            "componentType" : 5126,
            "count" : 30272,
            "type" : "VEC2"
        },
        {
            "bufferView" : 3,
            "componentType" : 5123,
            "count" : 122112,
            "type" : "SCALAR"
        }
    ],
    "bufferViews" : [
        {
            "buffer" : 0,
            "byteLength" : 363264,
            "byteOffset" : 0
        },
        {
            "buffer" : 0,
            "byteLength" : 363264,
            "byteOffset" : 363264
        },
        {
            "buffer" : 0,
            "byteLength" : 242176,
            "byteOffset" : 726528
        },
        {
            "buffer" : 0,
            "byteLength" : 244224,
            "byteOffset" : 968704
        },
        {
            "buffer" : 0,
            "byteLength" : 90351,
            "byteOffset" : 1212928
        }
    ],
    "samplers" : [
        {
            "magFilter" : 9729,
            "minFilter" : 9987
        }
    ],
    "buffers" : [
        {
            "byteLength" : 1303280,
            "uri" : "data:application/octet-stream;base64,"
        }
    ]
}
